<?xml version="1.0" encoding="utf-8"?>
<!-- Generator: Adobe Illustrator 21.1.0, SVG Export Plug-In . SVG Version: 6.00 Build 0)  -->
<svg version="1.1" id="Layer_1" xmlns="http://www.w3.org/2000/svg" xmlns:xlink="http://www.w3.org/1999/xlink" x="0px" y="0px"
	 viewBox="0 0 195.3 43.8" style="enable-background:new 0 0 195.3 43.8;" xml:space="preserve">
<style type="text/css">
	.st0{fill:#231F20;}
	.st1{fill:#929497;}
	.st2{fill:#FFFFFF;}
	.st3{fill:#041E3C;}
	.st4{fill:#1D396B;}
	.st5{fill:#79B3E1;}
</style>
<g>
	<g>
		<path class="st0" d="M194,35.6c0-0.5-0.3-0.8-1-0.8h-1.1v2.8h0.4v-1.2h0.4l0.8,1.2h0.5l-0.8-1.3C193.7,36.3,194,36.1,194,35.6z
			 M192.8,36.1h-0.4v-0.9h0.6c0.3,0,0.6,0,0.6,0.4C193.6,36.1,193.2,36.1,192.8,36.1z M192.9,33.8c-1.3,0-2.4,1-2.4,2.4
			c0,1.4,1.1,2.4,2.4,2.4c1.3,0,2.4-1,2.4-2.4C195.3,34.8,194.2,33.8,192.9,33.8z M192.9,38.3c-1.1,0-2-0.9-2-2.1
			c0-1.2,0.9-2.1,2-2.1c1.1,0,2,0.9,2,2.1C194.8,37.4,194,38.3,192.9,38.3z"/>
		<g>
			<path class="st0" d="M68.7,36h-9.9V7.2c0-0.5,0.1-0.9,0.2-1.4l0.1-0.6h-4.7l0.1,0.6c0.1,0.5,0.2,1,0.2,1.4v29.5
				c0,0.4-0.1,0.9-0.2,1.3l-0.1,0.6h16.2v-3l-0.7,0.2C69.5,35.9,69.1,36,68.7,36z"/>
			<path class="st0" d="M78.4,36.6V7.2c0-0.6,0-1.1,0.1-1.4l0.2-0.7H74l0.1,0.6c0.1,0.5,0.2,1,0.2,1.4v29.4c0,0.5-0.1,0.9-0.2,1.4
				L74,38.6h4.8L78.5,38C78.4,37.7,78.4,37.2,78.4,36.6z"/>
			<path class="st0" d="M85.4,5.7c0.1,0.5,0.2,1,0.2,1.4v29.5c0,0.5-0.1,0.9-0.2,1.4l-0.1,0.6h4.7L89.8,38c-0.1-0.5-0.2-1-0.2-1.4
				V22.8h8.2c0.6,0,1.1,0.1,1.5,0.2l0.7,0.2v-3l-0.6,0.1c-0.5,0.1-1,0.2-1.5,0.2h-8.2V7.6h9.4c0.6,0,1.1,0,1.7,0.1l0.6,0.1V5.1H85.2
				L85.4,5.7z"/>
			<path class="st0" d="M119.3,20.3h-9.7V7.6h10.1c0.4,0,0.9,0.1,1.3,0.2l0.7,0.2v-3h-16.5l0.2,0.7c0.1,0.3,0.1,0.8,0.1,1.4v29.4
				c0,0.4,0,0.9-0.1,1.4l-0.1,0.6h16.4v-3l-0.6,0.1c-1.1,0.2-1.5,0.2-1.7,0.2h-9.8V22.6h9.8c0.7,0,1.3,0,1.7,0.1l0.6,0.1v-3L121,20
				C120.5,20.2,119.9,20.3,119.3,20.3z"/>
			<path class="st0" d="M175.3,36.7L163.9,6.3c-0.1-0.2-0.1-0.4-0.2-0.7l-0.1-0.4H160l-0.1,0.5c-0.1,0.5-0.1,0.8-0.2,0.9l-10.9,30.2
				c-0.1,0.2-0.2,0.4-0.3,0.6c-0.3-0.2-0.6-0.5-0.8-0.7l-12.1-13.5c3-0.3,5.4-1.2,7-2.5c1.9-1.5,2.9-3.7,2.9-6.4
				c0-1.8-0.5-3.5-1.6-5c-0.9-1.3-2.2-2.3-3.8-3c-1.6-0.7-3.6-1.1-5.7-1.1h-7.8l0.1,0.6c0.1,0.5,0.2,1,0.2,1.4v29.4
				c0,0.5-0.1,0.9-0.2,1.4l-0.1,0.6h4.7l-0.1-0.6c-0.1-0.5-0.2-1-0.2-1.4V24l11.6,13.1c0.4,0.5,0.7,0.8,0.8,1.2l0.1,0.3h4.2h2.7h0.6
				l0-0.5c0-0.6,0.1-0.9,0.1-1.1l3.5-9.5h12.7L171,37c0.1,0.4,0.2,0.8,0.2,1.1l0,0.5h5.2l-0.5-0.8C175.6,37.3,175.4,37,175.3,36.7z
				 M166.5,25.2h-11l5.4-14.9L166.5,25.2z M131.1,7.6h2.3c2.3,0,4,0.4,5.2,1.3c0.8,0.6,1.5,1.4,2,2.3c0.5,1,0.7,2,0.7,3.1
				c0,2.5-1,4.3-3.1,5.5c-1.3,0.7-2.7,1.1-4.3,1.1h-2.8V7.6z"/>
			<path class="st0" d="M191.8,5.1l-0.1,0.4c-0.1,0.4-0.3,0.8-0.5,1.1l-7.5,13.9l-7.3-13.8c-0.4-0.8-0.5-1.1-0.5-1.2l-0.1-0.4h-5.2
				l0.7,0.9c0.2,0.2,0.4,0.6,0.7,1.1l8.8,16.6v12.9c0,0.5-0.1,0.9-0.2,1.4l-0.1,0.6h4.7l-0.1-0.6c-0.1-0.5-0.2-1-0.2-1.4V23.7
				l8.9-16.7c0.2-0.3,0.4-0.7,0.6-1l0.6-0.8H191.8z"/>
		</g>
	</g>
	<path class="st1" d="M1.9,43.8c-1.1,0-1.9-0.9-1.9-1.9V1.9C0,0.9,0.9,0,1.9,0h39.9c1.1,0,1.9,0.9,1.9,1.9v39.9
		c0,1.1-0.9,1.9-1.9,1.9H1.9z"/>
	<path class="st2" d="M43,41.8c0,0.7-0.5,1.2-1.2,1.2H1.9c-0.7,0-1.2-0.5-1.2-1.2V1.9c0-0.7,0.5-1.2,1.2-1.2h39.9
		c0.7,0,1.2,0.5,1.2,1.2V41.8z"/>
	<g>
		<rect x="5.1" y="5.1" class="st3" width="7.3" height="7.3"/>
		<rect x="13.9" y="5.1" class="st4" width="7.3" height="7.3"/>
		<rect x="22.6" y="5.1" class="st5" width="7.3" height="7.3"/>
		<rect x="5.1" y="22.6" class="st5" width="7.3" height="7.3"/>
		<rect x="5.1" y="13.9" class="st4" width="7.3" height="7.3"/>
		<rect x="13.9" y="13.9" class="st5" width="7.3" height="7.3"/>
		<rect x="22.6" y="31.4" class="st4" width="7.3" height="7.3"/>
		<rect x="31.4" y="31.4" class="st3" width="7.3" height="7.3"/>
		<rect x="13.9" y="31.4" class="st5" width="7.3" height="7.3"/>
		<rect x="31.4" y="13.9" class="st5" width="7.3" height="7.3"/>
		<rect x="31.4" y="22.6" class="st4" width="7.3" height="7.3"/>
		<rect x="22.6" y="22.6" class="st5" width="7.3" height="7.3"/>
	</g>
</g>
</svg>
